<?xml version="1.0" standalone="no"?>
<!DOCTYPE svg PUBLIC "-//W3C//DTD SVG 20010904//EN"
 "http://www.w3.org/TR/2001/REC-SVG-20010904/DTD/svg10.dtd">
<svg version="1.0" xmlns="http://www.w3.org/2000/svg"
 width="500.000000pt" height="500.000000pt" viewBox="0 0 500.000000 500.000000"
 preserveAspectRatio="xMidYMid meet">

<g transform="translate(0.000000,500.000000) scale(0.100000,-0.100000)"
fill="#000000" stroke="none">
<path d="M152 3823 l3 -288 55 0 55 0 5 145 5 145 70 -133 70 -133 55 3 55 3
55 111 c30 61 60 117 65 125 7 10 12 -29 15 -126 l5 -140 55 0 55 0 3 288 2
288 -61 -3 -62 -3 -91 -197 c-50 -109 -93 -198 -96 -198 -3 0 -50 90 -105 200
l-100 200 -57 0 -58 0 2 -287z"/>
<path d="M922 4102 c-9 -7 -12 -71 -10 -288 l3 -279 55 0 55 0 0 285 0 285
-45 3 c-25 1 -51 -2 -58 -6z"/>
<path d="M1155 4098 c-3 -7 -4 -137 -3 -288 l3 -275 55 0 55 0 3 173 c1 94 6
172 10 172 4 -1 60 -80 125 -176 l119 -175 51 3 52 3 0 285 0 285 -50 0 -50 0
-3 -165 c-1 -91 -4 -171 -7 -179 -3 -8 -56 61 -128 165 l-122 179 -53 3 c-36
2 -54 -1 -57 -10z"/>
<path d="M1935 4098 c-117 -41 -192 -164 -182 -298 7 -109 68 -204 157 -247
52 -26 170 -29 228 -8 109 42 176 146 176 275 1 173 -113 291 -279 289 -38 0
-83 -5 -100 -11z m185 -120 c49 -34 75 -91 75 -163 0 -107 -62 -175 -160 -175
-100 0 -160 68 -160 180 0 75 27 129 79 161 44 27 123 25 166 -3z"/>
<path d="M2395 4100 c-3 -5 37 -71 90 -145 56 -80 92 -141 88 -148 -4 -7 -47
-67 -95 -135 -49 -68 -86 -127 -83 -132 4 -6 33 -10 65 -10 l59 0 67 95 c37
52 69 93 71 91 2 -2 32 -44 66 -92 l63 -89 58 -3 c33 -2 63 1 67 5 5 5 -34 69
-87 142 -52 73 -93 138 -91 145 3 6 46 70 96 141 51 72 87 133 83 137 -5 5
-35 8 -68 6 l-58 -3 -63 -89 c-34 -48 -64 -90 -66 -92 -2 -2 -34 39 -71 91
l-67 95 -59 0 c-32 0 -62 -4 -65 -10z"/>
<path d="M3005 4097 c-3 -7 -4 -136 -3 -287 l3 -275 55 0 55 0 3 279 c2 217
-1 281 -10 288 -21 13 -98 9 -103 -5z"/>
<path d="M3248 4104 c-5 -4 -8 -133 -8 -286 0 -250 2 -279 17 -285 28 -11 218
14 264 34 53 24 99 68 125 120 29 58 27 223 -3 279 -47 87 -130 128 -288 139
-55 4 -103 3 -107 -1z m235 -131 c50 -29 69 -75 65 -160 -3 -54 -9 -79 -24
-100 -30 -39 -72 -62 -124 -65 l-45 -3 -3 179 -2 179 51 -6 c28 -4 65 -14 82
-24z"/>
<path d="M3795 4097 c-3 -7 -4 -136 -3 -287 l3 -275 43 -3 c74 -5 72 -12 72
287 0 194 -3 270 -12 279 -16 16 -97 16 -103 -1z"/>
<path d="M4032 4102 c-9 -7 -12 -71 -10 -288 l3 -279 155 0 155 0 0 55 0 55
-97 3 -98 3 -2 227 -3 227 -45 3 c-25 1 -51 -2 -58 -6z"/>
<path d="M755 3323 c-44 -6 -127 -30 -182 -54 l-48 -20 53 -34 53 -33 -118 -4
c-107 -3 -124 -6 -185 -35 -64 -30 -156 -108 -143 -121 4 -4 37 -12 73 -17
l67 -10 -41 -28 c-48 -32 -94 -47 -147 -47 l-39 0 7 -42 c11 -64 50 -172 89
-245 20 -37 34 -68 32 -70 -7 -7 -62 19 -83 39 -20 19 -23 19 -23 4 0 -39 35
-166 65 -241 37 -89 72 -255 82 -384 5 -68 11 -89 29 -110 l23 -26 1 98 c0 94
13 129 25 70 19 -85 58 -194 82 -225 49 -64 71 -71 223 -67 186 5 204 15 280
158 30 57 62 109 71 114 9 6 28 7 42 3 21 -5 37 -27 78 -106 77 -150 112 -170
310 -170 104 0 120 2 150 23 48 32 85 99 112 201 35 132 51 127 45 -13 -3 -61
-4 -111 -2 -111 2 0 15 20 29 43 17 30 25 59 25 93 1 84 26 197 79 351 55 162
75 276 64 375 l-6 60 -18 -57 c-10 -32 -21 -61 -26 -66 -4 -4 -8 47 -8 114 0
80 -5 133 -13 154 -8 18 -50 65 -95 105 l-80 72 7 -39 c6 -37 5 -39 -9 -20
-141 186 -270 267 -464 290 l-53 6 21 -27 c12 -15 19 -29 17 -31 -2 -2 -27 8
-56 22 -106 54 -259 76 -395 58z m513 -368 c74 -67 134 -150 161 -222 20 -54
25 -60 47 -55 35 6 81 -16 114 -56 16 -20 31 -34 33 -31 1 2 15 23 31 46 15
23 39 49 52 58 23 15 23 14 -6 -33 -74 -120 -78 -195 -20 -367 22 -65 40 -127
40 -137 0 -19 -34 -26 -45 -8 -3 5 -34 18 -69 29 -171 53 -387 29 -495 -55
-58 -45 -101 -46 -159 -3 -128 94 -392 115 -538 44 -94 -46 -103 -32 -53 92
40 98 59 168 59 214 0 104 60 193 137 205 l45 6 -39 31 c-52 42 -153 146 -153
159 0 5 26 -14 58 -43 162 -149 395 -246 566 -237 l57 3 -42 60 c-98 141 -211
248 -354 335 -75 45 -55 45 36 -1 114 -57 249 -181 357 -326 42 -57 49 -63 82
-63 90 0 250 43 250 67 0 54 -90 184 -204 297 -83 81 -87 87 -47 65 24 -13 69
-46 99 -74z"/>
<path d="M4545 3221 c-11 -5 -42 -36 -69 -70 -45 -56 -51 -60 -66 -46 -9 8
-24 15 -32 15 -16 0 -68 -54 -68 -70 0 -18 201 -180 225 -180 8 0 26 16 41 35
l27 36 -23 24 c-25 27 -25 27 37 103 45 55 50 75 32 115 -18 39 -62 55 -104
38z"/>
<path d="M4175 2734 c-167 -205 -193 -242 -213 -301 -12 -37 -27 -72 -32 -77
-23 -23 -8 -28 18 -5 15 14 46 37 69 52 25 15 96 93 174 189 73 90 160 196
192 235 65 79 65 82 8 122 l-26 19 -190 -234z m224 186 l24 -20 -124 -153
c-216 -267 -257 -314 -293 -335 -32 -19 -36 -20 -35 -4 2 45 37 98 208 307
100 124 186 225 190 225 3 -1 17 -10 30 -20z"/>
<path d="M4154 2665 c-130 -158 -152 -188 -160 -219 l-7 -29 29 18 c27 16 249
279 260 309 3 8 -3 16 -16 19 -17 4 -36 -13 -106 -98z"/>
<path d="M3730 1975 l0 -315 40 0 c31 0 42 5 51 23 6 12 13 24 15 25 1 2 20
-8 41 -22 29 -20 50 -26 92 -26 70 0 112 26 143 88 33 67 33 217 1 279 -53 98
-168 120 -245 47 l-28 -28 0 122 0 122 -55 0 -55 0 0 -315z m234 41 c40 -17
56 -55 56 -136 0 -74 -30 -123 -79 -128 -63 -6 -101 46 -101 138 0 66 19 110
53 125 40 18 32 17 71 1z"/>
<path d="M3910 2248 c-14 -31 -7 -58 14 -58 10 0 13 6 10 15 -4 8 -1 15 5 15
15 0 14 12 -3 35 -14 19 -15 19 -26 -7z"/>
<path d="M2300 1955 l0 -297 148 4 c166 5 200 15 250 72 28 32 32 44 32 92 0
70 -20 109 -65 125 -35 13 -47 29 -22 29 28 0 69 58 74 103 8 64 -17 111 -74
138 -39 19 -68 23 -194 27 l-149 5 0 -298z m264 183 c30 -13 40 -39 32 -74 -8
-32 -59 -54 -126 -54 l-50 0 0 70 0 70 60 0 c32 0 70 -5 84 -12z m20 -239 c32
-25 35 -75 7 -110 -16 -20 -30 -24 -95 -27 l-76 -4 0 81 0 81 69 0 c54 0 74
-4 95 -21z"/>
<path d="M2931 2105 c-29 -8 -57 -18 -62 -21 -5 -3 0 -23 11 -44 l20 -39 35
14 c19 8 57 15 84 15 40 0 53 -4 65 -22 9 -12 16 -32 16 -44 0 -20 -7 -22 -82
-28 -141 -13 -198 -53 -198 -141 0 -88 49 -135 139 -135 58 0 87 10 120 41 23
22 24 22 37 4 8 -10 14 -25 14 -32 0 -9 14 -13 41 -13 l40 0 -3 189 c-3 207
-5 213 -71 247 -42 22 -143 26 -206 9z m169 -271 c0 -69 -80 -116 -141 -84
-25 14 -26 71 -1 92 24 22 40 26 95 27 l47 1 0 -36z"/>
<path d="M3554 2109 c-18 -5 -46 -25 -63 -44 -17 -19 -32 -35 -35 -35 -2 0 -7
18 -11 40 -7 40 -7 40 -51 40 l-44 0 0 -225 0 -225 55 0 55 0 0 113 c0 179 24
226 120 235 l50 5 0 53 c0 60 -7 63 -76 43z"/>
<path d="M4385 2116 c-5 -3 -26 -7 -46 -10 -19 -4 -43 -12 -53 -19 -17 -12
-17 -15 -1 -48 17 -36 17 -36 54 -23 88 32 161 10 161 -47 0 -24 -3 -26 -95
-36 -106 -13 -147 -32 -170 -79 -19 -41 -19 -74 0 -122 21 -51 59 -72 133 -72
50 0 65 5 100 30 23 17 44 30 46 30 2 0 9 -13 15 -30 9 -27 14 -30 51 -30 l42
0 -4 179 c-3 199 -8 214 -77 254 -28 17 -132 32 -156 23z m115 -283 c-1 -58
-38 -93 -99 -93 -52 0 -76 44 -50 91 14 26 43 38 102 38 l47 1 0 -37z"/>
<path d="M139 2084 c-22 -27 -23 -114 -1 -195 23 -82 74 -203 91 -213 25 -16
20 25 -10 82 -46 89 -55 252 -14 252 18 0 20 42 5 71 -13 23 -53 25 -71 3z"/>
<path d="M1842 2083 c-20 -38 -23 -73 -8 -73 23 0 36 -33 36 -87 0 -63 -14
-116 -48 -180 -21 -41 -24 -55 -15 -64 10 -10 20 4 49 65 66 145 91 297 54
341 -17 20 -57 19 -68 -2z"/>
<path d="M1816 1839 c-10 -19 -16 -44 -14 -54 3 -18 5 -18 22 7 9 15 16 39 14
54 l-3 28 -19 -35z"/>
<path d="M210 1839 c0 -15 9 -37 20 -50 l19 -24 1 26 c0 15 -9 37 -20 50 l-19
24 -1 -26z"/>
<path d="M283 1650 c3 -125 0 -201 -10 -265 -24 -142 -21 -302 6 -412 12 -51
26 -93 30 -93 4 0 14 12 22 28 12 25 14 21 20 -73 9 -146 45 -229 136 -317 49
-47 119 -98 134 -98 5 0 9 9 9 21 0 20 3 19 35 -10 82 -72 186 -101 365 -101
169 0 285 33 359 100 39 37 45 37 37 5 l-6 -25 46 29 c25 15 71 53 102 82 92
90 152 246 139 362 -4 26 -4 47 -1 47 2 0 13 -14 23 -30 l18 -30 11 37 c44
149 52 285 26 456 -12 79 -14 141 -8 280 4 97 4 177 0 177 -4 0 -21 -29 -37
-65 -33 -73 -72 -221 -89 -338 -10 -66 -19 -90 -62 -157 -37 -58 -52 -93 -57
-132 l-7 -53 -18 60 c-55 189 -62 198 -238 277 -137 61 -153 64 -201 39 l-39
-20 -43 21 -43 21 -64 -23 c-100 -36 -223 -99 -251 -128 -17 -17 -39 -67 -60
-132 l-34 -105 -8 44 c-7 41 -35 98 -90 181 -13 20 -26 59 -29 90 -18 143 -65
317 -107 390 l-20 35 4 -175z m989 -409 c71 -20 132 -89 140 -157 3 -28 1 -29
-51 -38 -85 -15 -135 3 -197 69 l-50 55 -83 0 -84 0 -56 -59 c-63 -65 -100
-78 -191 -66 -45 6 -50 9 -50 32 0 14 7 40 15 57 29 60 73 90 195 131 63 21
128 44 143 50 25 10 41 7 125 -25 53 -20 118 -42 144 -49z"/>
<path d="M2810 1450 c0 -5 5 -10 10 -10 6 0 10 5 10 10 0 6 -4 10 -10 10 -5 0
-10 -4 -10 -10z"/>
<path d="M4120 1450 c0 -5 5 -10 10 -10 6 0 10 5 10 10 0 6 -4 10 -10 10 -5 0
-10 -4 -10 -10z"/>
<path d="M4540 1450 c0 -5 5 -10 10 -10 6 0 10 5 10 10 0 6 -4 10 -10 10 -5 0
-10 -4 -10 -10z"/>
<path d="M2060 1440 c0 -5 9 -10 20 -10 18 0 20 -7 20 -60 0 -33 4 -60 10 -60
6 0 10 27 10 60 0 53 2 60 20 60 11 0 20 5 20 10 0 6 -22 10 -50 10 -27 0 -50
-4 -50 -10z"/>
<path d="M2403 1421 c-6 -10 -8 -22 -3 -27 5 -5 10 -25 12 -44 2 -27 8 -36 26
-38 12 -2 22 1 22 7 0 6 -7 11 -15 11 -10 0 -15 11 -15 35 0 24 5 35 15 35 8
0 15 5 15 10 0 6 -7 10 -15 10 -8 0 -15 5 -15 10 0 16 -14 12 -27 -9z"/>
<path d="M3125 1424 c-11 -27 -6 -87 10 -103 8 -8 21 -11 32 -6 16 6 16 8 -4
16 -30 11 -32 59 -3 66 25 7 26 23 1 23 -11 0 -21 5 -23 12 -3 7 -8 4 -13 -8z"/>
<path d="M2190 1367 c0 -31 5 -57 10 -57 6 0 10 15 10 34 0 25 7 39 22 50 12
9 19 19 15 22 -4 4 -13 2 -20 -4 -10 -9 -17 -8 -25 0 -9 9 -12 -1 -12 -45z"/>
<path d="M2295 1410 c-4 -6 5 -10 19 -10 36 0 34 -28 -1 -32 -20 -2 -29 -9
-31 -26 -4 -27 18 -38 46 -23 15 8 22 8 25 -2 3 -6 6 11 6 39 1 39 -3 53 -15
58 -23 9 -42 7 -49 -4z m45 -60 c0 -12 -28 -25 -36 -17 -9 9 6 27 22 27 8 0
14 -5 14 -10z"/>
<path d="M2505 1410 c-4 -6 5 -10 19 -10 16 0 26 -6 26 -15 0 -10 -10 -15 -30
-15 -37 0 -50 -24 -26 -48 13 -13 20 -14 35 -5 14 9 21 9 30 0 8 -8 11 2 11
40 0 37 -4 52 -16 57 -23 9 -42 7 -49 -4z m43 -62 c-7 -19 -38 -22 -38 -4 0
10 9 16 21 16 12 0 19 -5 17 -12z"/>
<path d="M2610 1365 c0 -30 4 -55 9 -55 10 0 22 77 14 96 -12 31 -23 11 -23
-41z"/>
<path d="M2646 1411 c-3 -5 3 -11 14 -14 16 -4 20 -14 20 -46 0 -23 5 -41 10
-41 6 0 10 15 10 33 0 41 13 62 34 54 11 -4 16 -19 16 -47 0 -22 5 -40 10 -40
6 0 10 22 10 49 0 41 -3 51 -20 56 -12 4 -27 2 -33 -4 -8 -6 -18 -6 -27 -1
-19 12 -37 13 -44 1z"/>
<path d="M2810 1365 c0 -30 5 -55 10 -55 6 0 10 25 10 55 0 30 -4 55 -10 55
-5 0 -10 -25 -10 -55z"/>
<path d="M2873 1394 c-15 -24 -15 -29 -2 -53 16 -28 54 -40 72 -22 8 8 2 11
-21 11 -22 0 -32 5 -32 15 0 10 11 15 35 15 39 0 42 6 19 38 -20 29 -50 28
-71 -4z m57 -9 c0 -8 -9 -15 -20 -15 -11 0 -20 7 -20 15 0 8 9 15 20 15 11 0
20 -7 20 -15z"/>
<path d="M2990 1365 c0 -65 16 -74 22 -12 5 46 1 67 -13 67 -5 0 -9 -25 -9
-55z"/>
<path d="M3026 1411 c-3 -5 3 -11 14 -14 16 -4 20 -14 20 -46 0 -23 5 -41 10
-41 6 0 10 22 10 49 0 35 -4 51 -16 55 -22 8 -32 8 -38 -3z"/>
<path d="M3216 1404 c-21 -21 -20 -57 2 -77 24 -22 45 -21 65 1 22 24 21 55
-1 75 -23 21 -46 22 -66 1z m59 -23 c8 -26 -4 -51 -25 -51 -21 0 -33 25 -25
51 8 24 42 24 50 0z"/>
<path d="M3393 1360 c22 -59 22 -59 2 -74 -17 -13 -17 -15 -4 -16 22 0 34 15
58 80 24 62 25 70 11 70 -5 0 -15 -19 -22 -41 l-12 -42 -18 42 c-27 64 -39 49
-15 -19z"/>
<path d="M3568 1409 c-12 -6 -18 -22 -18 -45 0 -27 5 -37 24 -46 14 -6 33 -7
43 -3 15 7 13 9 -11 14 -44 9 -45 31 -2 31 40 0 47 17 20 44 -18 18 -32 20
-56 5z m50 -26 c2 -8 -6 -13 -22 -13 -17 0 -26 5 -26 16 0 19 41 16 48 -3z"/>
<path d="M3675 1393 c16 -24 16 -28 1 -55 -20 -32 -5 -39 18 -7 l14 21 14 -21
c7 -11 19 -21 26 -21 9 0 8 7 -4 25 -14 21 -15 30 -5 52 15 33 5 43 -15 14
l-16 -22 -15 20 c-21 31 -38 25 -18 -6z"/>
<path d="M3786 1413 c-3 -3 -6 -37 -6 -75 0 -54 3 -68 15 -68 9 0 15 10 15 26
0 20 4 24 19 19 11 -3 26 1 35 10 33 33 8 107 -30 90 -17 -7 -17 -9 -2 -12 35
-9 33 -73 -3 -73 -15 0 -19 7 -19 39 0 38 -10 57 -24 44z"/>
<path d="M3928 1409 c-12 -6 -18 -22 -18 -45 0 -27 5 -37 24 -46 14 -6 33 -7
43 -3 15 7 13 9 -11 14 -44 9 -45 31 -2 31 40 0 47 17 20 44 -18 18 -32 20
-56 5z m50 -26 c2 -8 -6 -13 -22 -13 -17 0 -26 5 -26 16 0 19 41 16 48 -3z"/>
<path d="M4030 1365 c0 -30 5 -55 10 -55 6 0 10 14 10 30 0 21 9 39 26 55 28
26 26 32 -7 15 -13 -7 -19 -7 -19 0 0 5 -4 10 -10 10 -5 0 -10 -25 -10 -55z"/>
<path d="M4120 1365 c0 -30 5 -55 10 -55 6 0 10 25 10 55 0 30 -4 55 -10 55
-5 0 -10 -25 -10 -55z"/>
<path d="M4198 1409 c-12 -6 -18 -22 -18 -45 0 -27 5 -37 24 -46 14 -6 33 -7
43 -3 15 7 13 9 -11 14 -44 9 -45 31 -2 31 29 0 36 4 36 20 0 10 -9 24 -19 30
-24 12 -31 12 -53 -1z m52 -24 c0 -9 -9 -15 -25 -15 -24 0 -32 10 -18 23 12
13 43 7 43 -8z"/>
<path d="M4300 1365 c0 -30 4 -55 9 -55 10 0 22 77 14 96 -12 31 -23 11 -23
-41z"/>
<path d="M4335 1410 c-3 -5 3 -10 14 -10 18 0 21 -6 21 -45 0 -33 4 -45 15
-45 18 0 20 45 5 84 -10 26 -43 36 -55 16z"/>
<path d="M4448 1409 c-25 -14 -24 -75 1 -89 24 -13 51 -13 51 -1 0 5 -10 11
-22 13 -18 2 -23 10 -23 33 0 23 5 31 23 33 12 2 22 8 22 13 0 12 -30 11 -52
-2z"/>
<path d="M4540 1365 c0 -30 5 -55 10 -55 6 0 10 25 10 55 0 30 -4 55 -10 55
-5 0 -10 -25 -10 -55z"/>
<path d="M4615 1410 c-4 -6 5 -10 19 -10 16 0 26 -6 26 -15 0 -10 -10 -15 -30
-15 -37 0 -50 -24 -26 -48 13 -13 20 -14 35 -5 14 9 21 9 30 0 8 -8 11 2 11
40 0 37 -4 52 -16 57 -23 9 -42 7 -49 -4z m43 -62 c-7 -19 -38 -22 -38 -4 0
10 9 16 21 16 12 0 19 -5 17 -12z"/>
<path d="M4733 1413 c-22 -8 -14 -43 12 -55 14 -6 25 -15 25 -20 0 -4 -11 -8
-25 -8 -14 0 -25 -4 -25 -10 0 -11 30 -13 54 -4 25 9 19 43 -9 56 -32 15 -32
28 1 28 14 0 23 4 19 10 -6 10 -31 12 -52 3z"/>
</g>
</svg>
